<svg id="svg" version="1.1" xmlns="http://www.w3.org/2000/svg" xmlns:xlink="http://www.w3.org/1999/xlink" width="400" height="400" viewBox="0, 0, 400,400"><g id="svgg"><path id="path0" d="M21.601 19.722 C 19.009 20.608,19.187 6.606,19.298 201.072 L 19.400 378.869 20.522 379.835 L 21.645 380.800 199.803 380.800 C 329.521 380.800,378.227 380.679,378.937 380.356 C 379.473 380.112,380.112 379.473,380.356 378.937 C 380.679 378.227,380.800 329.521,380.800 199.803 L 380.800 21.645 379.835 20.522 L 378.869 19.400 200.935 19.322 C 63.755 19.261,22.680 19.353,21.601 19.722 M378.469 21.462 C 379.392 22.297,379.642 377.798,378.720 378.720 C 377.859 379.581,22.484 379.400,21.531 378.538 C 20.327 377.448,20.395 22.805,21.600 21.600 C 22.744 20.456,377.205 20.319,378.469 21.462 M99.800 73.483 C 88.371 76.194,85.568 77.003,83.381 78.226 C 82.050 78.970,80.163 79.860,79.186 80.205 C 78.210 80.549,76.959 81.250,76.406 81.763 C 75.853 82.275,74.368 83.344,73.106 84.138 C 70.224 85.953,61.591 94.581,60.133 97.105 C 59.531 98.147,58.546 99.630,57.944 100.400 C 57.343 101.170,56.493 102.718,56.055 103.839 C 55.618 104.960,54.725 106.722,54.070 107.753 C 53.416 108.785,52.571 110.837,52.192 112.314 C 51.813 113.791,50.945 116.980,50.265 119.400 C 48.361 126.164,48.471 136.356,50.538 144.800 C 51.319 147.990,52.156 151.500,52.398 152.600 C 52.641 153.700,53.289 155.285,53.839 156.121 C 54.390 156.958,55.431 158.938,56.154 160.521 C 56.877 162.105,57.779 163.657,58.160 163.971 C 58.541 164.285,59.139 165.095,59.488 165.771 C 60.800 168.308,66.571 174.453,71.349 178.400 C 72.814 179.610,74.706 181.185,75.554 181.899 C 76.402 182.614,77.974 183.579,79.048 184.043 C 80.122 184.508,81.900 185.488,83.000 186.221 C 84.100 186.955,86.170 187.851,87.600 188.213 C 89.030 188.574,91.782 189.480,93.715 190.225 C 101.141 193.089,118.007 193.466,121.248 190.842 C 122.157 190.106,122.163 190.043,121.663 186.947 C 120.540 180.009,120.527 180.000,111.048 180.000 C 103.701 180.000,99.564 179.396,96.540 177.883 C 95.473 177.349,93.340 176.512,91.800 176.022 C 90.260 175.533,88.460 174.732,87.800 174.244 C 87.140 173.755,85.700 172.844,84.600 172.218 C 82.831 171.211,81.777 170.375,77.952 166.946 C 74.602 163.942,68.925 157.006,68.368 155.235 C 68.119 154.446,67.215 152.619,66.357 151.175 C 64.988 148.869,64.679 147.847,63.813 142.775 C 63.271 139.599,62.554 136.010,62.219 134.800 C 61.523 132.288,61.434 130.090,61.969 128.680 C 62.173 128.146,62.898 125.029,63.580 121.754 C 64.263 118.479,65.199 115.080,65.660 114.200 C 67.111 111.432,67.905 109.845,68.562 108.400 C 70.222 104.747,81.544 93.439,84.812 92.169 C 85.796 91.788,87.590 90.878,88.800 90.149 C 90.078 89.378,92.193 88.573,93.846 88.228 C 95.412 87.901,97.908 87.176,99.394 86.617 C 103.110 85.218,112.893 85.104,116.353 86.419 C 117.537 86.869,120.181 87.574,122.230 87.986 C 124.724 88.488,126.794 89.205,128.496 90.157 C 129.894 90.939,131.804 91.848,132.739 92.178 C 134.440 92.779,135.683 93.709,140.782 98.200 C 143.832 100.886,148.400 105.807,148.400 106.407 C 148.400 106.622,149.010 107.473,149.756 108.299 C 151.320 110.031,155.294 118.423,155.991 121.467 C 156.800 125.000,159.652 125.613,165.611 123.536 C 168.268 122.610,168.839 118.173,166.786 114.400 C 165.395 111.844,164.797 110.527,163.826 107.884 C 163.439 106.831,162.714 105.481,162.216 104.884 C 161.717 104.288,160.901 102.995,160.401 102.011 C 158.147 97.570,148.008 87.307,142.336 83.724 C 141.225 83.023,140.020 82.187,139.658 81.866 C 137.493 79.951,128.452 76.399,122.701 75.205 C 119.456 74.532,116.339 73.805,115.775 73.590 C 114.761 73.205,101.351 73.115,99.800 73.483 M208.879 137.824 C 207.712 138.137,206.390 138.591,205.940 138.832 C 205.490 139.073,204.175 139.596,203.018 139.994 C 199.080 141.349,192.990 147.027,191.772 150.478 C 191.445 151.407,190.629 153.020,189.958 154.065 C 188.317 156.622,187.631 160.727,187.614 168.092 C 187.589 178.547,187.674 178.480,174.000 178.827 C 163.556 179.091,160.647 179.567,157.555 181.516 C 156.810 181.986,155.375 182.815,154.367 183.358 C 152.673 184.270,147.600 189.259,145.414 192.161 C 144.901 192.842,144.120 194.570,143.678 196.000 C 143.236 197.430,142.513 199.590,142.071 200.800 C 140.941 203.893,140.528 211.464,141.341 214.200 C 143.092 220.095,144.656 223.979,146.011 225.800 C 146.830 226.900,147.727 228.250,148.004 228.800 C 148.692 230.165,154.306 235.547,156.453 236.901 C 157.414 237.507,158.812 238.452,159.560 239.002 C 160.309 239.552,161.651 240.198,162.543 240.439 C 163.436 240.679,165.343 241.485,166.783 242.229 C 169.022 243.387,170.180 243.677,174.800 244.237 C 180.063 244.876,181.407 244.870,192.000 244.170 C 198.016 243.773,198.831 244.656,199.806 252.627 C 201.567 267.024,204.612 271.498,210.503 268.345 C 212.547 267.251,212.513 261.690,210.429 256.400 C 208.751 252.139,207.602 242.730,208.539 240.919 C 209.219 239.604,213.151 237.324,217.060 235.979 C 218.305 235.551,219.921 234.745,220.650 234.189 C 221.380 233.632,223.113 232.667,224.501 232.044 C 227.047 230.902,230.800 227.388,230.800 226.145 C 230.800 225.184,228.538 221.054,227.462 220.051 C 226.132 218.811,225.373 219.023,221.214 221.791 C 219.388 223.006,217.675 224.000,217.406 224.000 C 217.138 224.000,215.696 224.803,214.202 225.784 C 212.410 226.961,210.859 227.653,209.643 227.818 C 208.629 227.955,207.503 228.149,207.139 228.248 C 205.623 228.663,204.430 226.795,203.788 223.000 C 203.453 221.020,202.821 218.310,202.383 216.977 C 201.503 214.300,200.617 209.115,200.200 204.200 C 200.050 202.440,199.677 199.920,199.370 198.600 C 197.275 189.591,199.326 187.855,210.584 189.111 C 217.042 189.831,227.161 188.270,230.479 186.042 C 231.824 185.139,233.180 184.400,233.492 184.400 C 234.275 184.400,239.843 178.726,240.211 177.554 C 240.375 177.029,241.026 175.846,241.657 174.925 C 244.239 171.155,244.873 162.177,242.823 158.400 C 242.286 157.410,241.318 155.520,240.673 154.200 C 239.300 151.391,233.937 145.666,231.200 144.088 C 230.210 143.517,228.832 142.564,228.137 141.970 C 226.808 140.833,223.028 139.443,220.000 138.978 C 219.010 138.827,217.338 138.364,216.285 137.951 C 214.040 137.070,211.819 137.032,208.879 137.824 M220.232 148.219 C 225.410 149.554,230.569 153.928,232.304 158.455 C 235.362 166.430,232.959 172.967,225.303 177.508 C 221.354 179.850,220.472 179.996,210.200 179.996 C 196.503 179.996,196.798 180.175,196.805 171.811 C 196.810 166.177,197.242 163.425,198.505 160.983 C 198.851 160.314,199.510 158.698,199.969 157.391 C 202.699 149.624,211.040 145.849,220.232 148.219 M288.981 185.058 C 288.441 185.641,288.000 186.299,288.000 186.521 C 288.000 186.744,287.301 187.843,286.447 188.963 C 285.593 190.083,284.579 191.630,284.193 192.400 C 283.807 193.170,282.868 194.495,282.107 195.344 C 281.345 196.193,280.486 197.453,280.197 198.144 C 279.909 198.835,279.098 200.120,278.396 201.000 C 277.695 201.880,276.755 203.320,276.307 204.200 C 275.860 205.080,274.871 206.495,274.108 207.344 C 273.346 208.193,272.486 209.453,272.197 210.144 C 271.909 210.835,271.098 212.120,270.396 213.000 C 269.695 213.880,268.755 215.320,268.307 216.200 C 267.860 217.080,266.871 218.495,266.108 219.344 C 265.346 220.193,264.486 221.453,264.197 222.144 C 263.909 222.835,263.098 224.120,262.396 225.000 C 261.695 225.880,260.755 227.320,260.307 228.200 C 259.860 229.080,258.871 230.495,258.108 231.344 C 257.346 232.193,256.486 233.453,256.197 234.144 C 255.909 234.835,255.098 236.120,254.396 237.000 C 253.695 237.880,252.758 239.320,252.315 240.200 C 251.871 241.080,250.834 242.700,250.010 243.800 C 249.185 244.900,248.301 246.430,248.045 247.200 C 247.789 247.970,246.942 249.638,246.161 250.907 C 242.252 257.263,241.609 279.382,245.172 284.916 C 245.626 285.622,246.624 287.505,247.389 289.100 C 250.110 294.774,258.625 303.911,264.903 307.893 C 266.025 308.605,267.405 309.629,267.971 310.171 C 268.537 310.712,270.260 311.672,271.800 312.306 C 273.340 312.939,275.284 313.928,276.120 314.504 C 276.956 315.080,278.666 315.752,279.920 315.996 C 281.174 316.241,283.820 316.912,285.800 317.488 C 290.729 318.921,295.881 319.484,298.539 318.881 C 310.303 316.209,312.082 315.676,314.257 314.178 C 315.466 313.346,317.339 312.255,318.420 311.754 C 320.766 310.667,331.094 300.561,332.326 298.145 C 332.760 297.295,333.513 296.240,334.001 295.800 C 334.488 295.360,335.341 294.104,335.896 293.009 C 336.451 291.914,337.582 290.204,338.409 289.209 C 339.237 288.214,340.280 286.668,340.727 285.773 C 341.175 284.879,341.839 283.900,342.202 283.598 C 342.565 283.297,343.322 282.143,343.884 281.034 C 344.446 279.926,345.582 278.204,346.409 277.209 C 347.237 276.214,348.280 274.668,348.727 273.773 C 349.175 272.879,349.839 271.900,350.202 271.598 C 350.565 271.297,351.322 270.143,351.884 269.034 C 352.446 267.926,353.582 266.204,354.409 265.209 C 355.237 264.214,356.274 262.680,356.714 261.800 C 357.155 260.920,357.913 259.840,358.400 259.400 C 358.887 258.960,359.622 257.939,360.034 257.132 C 360.446 256.325,361.687 254.470,362.792 253.011 C 363.896 251.552,364.800 250.198,364.800 250.003 C 364.800 249.808,365.506 248.833,366.370 247.835 C 367.233 246.838,368.068 245.612,368.226 245.111 C 368.384 244.610,369.182 243.210,370.000 242.000 C 372.633 238.106,372.558 237.850,367.753 234.400 C 364.006 231.710,361.741 231.280,360.519 233.027 C 360.123 233.592,359.222 234.807,358.515 235.727 C 357.808 236.647,356.778 238.300,356.227 239.400 C 355.676 240.500,354.767 241.890,354.206 242.489 C 353.646 243.089,352.569 244.635,351.812 245.925 C 351.056 247.215,350.150 248.509,349.800 248.800 C 349.449 249.091,348.726 250.245,348.194 251.365 C 347.661 252.484,346.767 253.890,346.206 254.489 C 345.646 255.089,344.569 256.635,343.812 257.925 C 343.056 259.215,342.146 260.513,341.789 260.809 C 341.433 261.105,340.775 262.079,340.327 262.973 C 339.880 263.868,338.849 265.410,338.037 266.400 C 337.226 267.390,336.086 269.024,335.504 270.032 C 334.922 271.039,334.152 272.108,333.792 272.407 C 333.432 272.705,332.680 273.861,332.122 274.975 C 331.563 276.089,330.532 277.720,329.831 278.600 C 329.130 279.480,328.088 281.010,327.516 282.000 C 326.944 282.990,326.009 284.236,325.438 284.770 C 324.867 285.303,324.400 285.955,324.400 286.219 C 324.400 289.313,313.243 299.927,306.573 303.180 C 298.144 307.290,279.759 304.477,272.600 297.982 C 271.940 297.383,270.923 296.647,270.340 296.347 C 267.595 294.932,261.752 288.468,259.735 284.616 C 256.128 277.727,256.332 278.423,256.113 272.271 C 255.824 264.135,256.409 259.657,258.132 256.828 C 258.877 255.602,259.786 253.704,260.151 252.608 C 260.516 251.512,261.326 249.978,261.952 249.200 C 262.578 248.421,263.499 246.977,263.999 245.992 C 264.499 245.006,265.424 243.608,266.055 242.885 C 266.685 242.162,267.632 240.722,268.158 239.685 C 268.683 238.648,269.512 237.440,270.000 237.000 C 270.488 236.560,271.303 235.379,271.812 234.375 C 272.321 233.371,273.049 232.291,273.431 231.975 C 274.208 231.330,277.968 225.802,279.800 222.610 C 280.460 221.460,281.508 219.908,282.129 219.160 C 283.450 217.569,286.094 213.584,287.800 210.611 C 288.460 209.461,289.508 207.908,290.129 207.160 C 291.340 205.702,293.733 202.120,296.000 198.374 C 296.770 197.102,297.873 195.462,298.450 194.730 C 300.829 191.718,300.839 189.375,298.479 187.940 C 297.666 187.446,296.370 186.552,295.600 185.954 C 294.332 184.969,291.811 184.008,290.481 184.002 C 290.195 184.001,289.520 184.476,288.981 185.058 M186.670 187.794 C 187.595 188.442,188.203 190.617,188.627 194.800 C 188.772 196.230,189.243 198.300,189.672 199.400 C 190.105 200.509,190.872 204.607,191.395 208.600 C 192.626 218.015,193.115 220.746,194.255 224.570 C 195.333 228.188,195.449 230.267,194.636 231.427 C 192.246 234.839,182.231 235.927,174.524 233.613 C 172.146 232.899,169.305 232.047,168.210 231.720 C 167.116 231.393,165.628 230.605,164.905 229.970 C 164.181 229.335,163.007 228.516,162.295 228.151 C 160.584 227.274,157.252 223.891,156.000 221.761 C 155.450 220.825,154.508 219.270,153.907 218.306 C 153.152 217.096,152.673 215.567,152.363 213.376 C 150.548 200.577,157.429 190.155,169.113 188.010 C 174.294 187.058,185.424 186.921,186.670 187.794 " stroke="none" fill="#dc6666" fill-rule="evenodd"></path><path id="path1" d="M21.600 21.600 C 20.395 22.805,20.327 377.448,21.531 378.538 C 22.484 379.400,377.859 379.581,378.720 378.720 C 379.642 377.798,379.392 22.297,378.469 21.462 C 377.205 20.319,22.744 20.456,21.600 21.600 M115.775 73.590 C 116.339 73.805,119.456 74.532,122.701 75.205 C 128.452 76.399,137.493 79.951,139.658 81.866 C 140.020 82.187,141.225 83.023,142.336 83.724 C 148.008 87.307,158.147 97.570,160.401 102.011 C 160.901 102.995,161.717 104.288,162.216 104.884 C 162.714 105.481,163.439 106.831,163.826 107.884 C 164.797 110.527,165.395 111.844,166.786 114.400 C 168.839 118.173,168.268 122.610,165.611 123.536 C 159.652 125.613,156.800 125.000,155.991 121.467 C 155.294 118.423,151.320 110.031,149.756 108.299 C 149.010 107.473,148.400 106.622,148.400 106.407 C 148.400 105.807,143.832 100.886,140.782 98.200 C 135.683 93.709,134.440 92.779,132.739 92.178 C 131.804 91.848,129.894 90.939,128.496 90.157 C 126.794 89.205,124.724 88.488,122.230 87.986 C 120.181 87.574,117.537 86.869,116.353 86.419 C 112.893 85.104,103.110 85.218,99.394 86.617 C 97.908 87.176,95.412 87.901,93.846 88.228 C 92.193 88.573,90.078 89.378,88.800 90.149 C 87.590 90.878,85.796 91.788,84.812 92.169 C 81.544 93.439,70.222 104.747,68.562 108.400 C 67.905 109.845,67.111 111.432,65.660 114.200 C 65.199 115.080,64.263 118.479,63.580 121.754 C 62.898 125.029,62.173 128.146,61.969 128.680 C 61.434 130.090,61.523 132.288,62.219 134.800 C 62.554 136.010,63.271 139.599,63.813 142.775 C 64.679 147.847,64.988 148.869,66.357 151.175 C 67.215 152.619,68.119 154.446,68.368 155.235 C 68.925 157.006,74.602 163.942,77.952 166.946 C 81.777 170.375,82.831 171.211,84.600 172.218 C 85.700 172.844,87.140 173.755,87.800 174.244 C 88.460 174.732,90.260 175.533,91.800 176.022 C 93.340 176.512,95.473 177.349,96.540 177.883 C 99.564 179.396,103.701 180.000,111.048 180.000 C 120.527 180.000,120.540 180.009,121.663 186.947 C 122.163 190.043,122.157 190.106,121.248 190.842 C 118.007 193.466,101.141 193.089,93.715 190.225 C 91.782 189.480,89.030 188.574,87.600 188.213 C 86.170 187.851,84.100 186.955,83.000 186.221 C 81.900 185.488,80.122 184.508,79.048 184.043 C 77.974 183.579,76.402 182.614,75.554 181.899 C 74.706 181.185,72.814 179.610,71.349 178.400 C 66.571 174.453,60.800 168.308,59.488 165.771 C 59.139 165.095,58.541 164.285,58.160 163.971 C 57.779 163.657,56.877 162.105,56.154 160.521 C 55.431 158.938,54.390 156.958,53.839 156.121 C 53.289 155.285,52.641 153.700,52.398 152.600 C 52.156 151.500,51.319 147.990,50.538 144.800 C 48.471 136.356,48.361 126.164,50.265 119.400 C 50.945 116.980,51.813 113.791,52.192 112.314 C 52.571 110.837,53.416 108.785,54.070 107.753 C 54.725 106.722,55.618 104.960,56.055 103.839 C 56.493 102.718,57.343 101.170,57.944 100.400 C 58.546 99.630,59.531 98.147,60.133 97.105 C 61.591 94.581,70.224 85.953,73.106 84.138 C 74.368 83.344,75.853 82.275,76.406 81.763 C 76.959 81.250,78.210 80.549,79.186 80.205 C 80.163 79.860,82.050 78.970,83.381 78.226 C 85.568 77.003,88.371 76.194,99.800 73.483 C 101.351 73.115,114.761 73.205,115.775 73.590 M216.285 137.951 C 217.338 138.364,219.010 138.827,220.000 138.978 C 223.028 139.443,226.808 140.833,228.137 141.970 C 228.832 142.564,230.210 143.517,231.200 144.088 C 233.937 145.666,239.300 151.391,240.673 154.200 C 241.318 155.520,242.286 157.410,242.823 158.400 C 244.873 162.177,244.239 171.155,241.657 174.925 C 241.026 175.846,240.375 177.029,240.211 177.554 C 239.843 178.726,234.275 184.400,233.492 184.400 C 233.180 184.400,231.824 185.139,230.479 186.042 C 227.161 188.270,217.042 189.831,210.584 189.111 C 199.326 187.855,197.275 189.591,199.370 198.600 C 199.677 199.920,200.050 202.440,200.200 204.200 C 200.617 209.115,201.503 214.300,202.383 216.977 C 202.821 218.310,203.453 221.020,203.788 223.000 C 204.430 226.795,205.623 228.663,207.139 228.248 C 207.503 228.149,208.629 227.955,209.643 227.818 C 210.859 227.653,212.410 226.961,214.202 225.784 C 215.696 224.803,217.138 224.000,217.406 224.000 C 217.675 224.000,219.388 223.006,221.214 221.791 C 225.373 219.023,226.132 218.811,227.462 220.051 C 228.538 221.054,230.800 225.184,230.800 226.145 C 230.800 227.388,227.047 230.902,224.501 232.044 C 223.113 232.667,221.380 233.632,220.650 234.189 C 219.921 234.745,218.305 235.551,217.060 235.979 C 213.151 237.324,209.219 239.604,208.539 240.919 C 207.602 242.730,208.751 252.139,210.429 256.400 C 212.513 261.690,212.547 267.251,210.503 268.345 C 204.612 271.498,201.567 267.024,199.806 252.627 C 198.831 244.656,198.016 243.773,192.000 244.170 C 181.407 244.870,180.063 244.876,174.800 244.237 C 170.180 243.677,169.022 243.387,166.783 242.229 C 165.343 241.485,163.436 240.679,162.543 240.439 C 161.651 240.198,160.309 239.552,159.560 239.002 C 158.812 238.452,157.414 237.507,156.453 236.901 C 154.306 235.547,148.692 230.165,148.004 228.800 C 147.727 228.250,146.830 226.900,146.011 225.800 C 144.656 223.979,143.092 220.095,141.341 214.200 C 140.528 211.464,140.941 203.893,142.071 200.800 C 142.513 199.590,143.236 197.430,143.678 196.000 C 144.120 194.570,144.901 192.842,145.414 192.161 C 147.600 189.259,152.673 184.270,154.367 183.358 C 155.375 182.815,156.810 181.986,157.555 181.516 C 160.647 179.567,163.556 179.091,174.000 178.827 C 187.674 178.480,187.589 178.547,187.614 168.092 C 187.631 160.727,188.317 156.622,189.958 154.065 C 190.629 153.020,191.445 151.407,191.772 150.478 C 192.990 147.027,199.080 141.349,203.018 139.994 C 204.175 139.596,205.490 139.073,205.940 138.832 C 208.911 137.242,213.485 136.853,216.285 137.951 M210.697 147.802 C 206.170 148.944,201.458 153.156,199.969 157.391 C 199.510 158.698,198.851 160.314,198.505 160.983 C 197.242 163.425,196.810 166.177,196.805 171.811 C 196.798 180.175,196.503 179.996,210.200 179.996 C 220.472 179.996,221.354 179.850,225.303 177.508 C 232.959 172.967,235.362 166.430,232.304 158.455 C 229.422 150.935,218.880 145.738,210.697 147.802 M292.600 184.436 C 293.480 184.673,294.830 185.356,295.600 185.954 C 296.370 186.552,297.666 187.446,298.479 187.940 C 300.839 189.375,300.829 191.718,298.450 194.730 C 297.873 195.462,296.770 197.102,296.000 198.374 C 293.733 202.120,291.340 205.702,290.129 207.160 C 289.508 207.908,288.460 209.461,287.800 210.611 C 286.094 213.584,283.450 217.569,282.129 219.160 C 281.508 219.908,280.460 221.460,279.800 222.610 C 277.968 225.802,274.208 231.330,273.431 231.975 C 273.049 232.291,272.321 233.371,271.812 234.375 C 271.303 235.379,270.488 236.560,270.000 237.000 C 269.512 237.440,268.683 238.648,268.158 239.685 C 267.632 240.722,266.685 242.162,266.055 242.885 C 265.424 243.608,264.499 245.006,263.999 245.992 C 263.499 246.977,262.578 248.421,261.952 249.200 C 261.326 249.978,260.516 251.512,260.151 252.608 C 259.786 253.704,258.877 255.602,258.132 256.828 C 256.409 259.657,255.824 264.135,256.113 272.271 C 256.332 278.423,256.128 277.727,259.735 284.616 C 261.752 288.468,267.595 294.932,270.340 296.347 C 270.923 296.647,271.940 297.383,272.600 297.982 C 279.759 304.477,298.144 307.290,306.573 303.180 C 313.243 299.927,324.400 289.313,324.400 286.219 C 324.400 285.955,324.867 285.303,325.438 284.770 C 326.009 284.236,326.944 282.990,327.516 282.000 C 328.088 281.010,329.130 279.480,329.831 278.600 C 330.532 277.720,331.563 276.089,332.122 274.975 C 332.680 273.861,333.432 272.705,333.792 272.407 C 334.152 272.108,334.922 271.039,335.504 270.032 C 336.086 269.024,337.226 267.390,338.037 266.400 C 338.849 265.410,339.880 263.868,340.327 262.973 C 340.775 262.079,341.433 261.105,341.789 260.809 C 342.146 260.513,343.056 259.215,343.812 257.925 C 344.569 256.635,345.646 255.089,346.206 254.489 C 346.767 253.890,347.661 252.484,348.194 251.365 C 348.726 250.245,349.449 249.091,349.800 248.800 C 350.150 248.509,351.056 247.215,351.812 245.925 C 352.569 244.635,353.646 243.089,354.206 242.489 C 354.767 241.890,355.676 240.500,356.227 239.400 C 356.778 238.300,357.808 236.647,358.515 235.727 C 359.222 234.807,360.123 233.592,360.519 233.027 C 361.741 231.280,364.006 231.710,367.753 234.400 C 372.558 237.850,372.633 238.106,370.000 242.000 C 369.182 243.210,368.384 244.610,368.226 245.111 C 368.068 245.612,367.233 246.838,366.370 247.835 C 365.506 248.833,364.800 249.808,364.800 250.003 C 364.800 250.198,363.896 251.552,362.792 253.011 C 361.687 254.470,360.446 256.325,360.034 257.132 C 359.622 257.939,358.887 258.960,358.400 259.400 C 357.913 259.840,357.155 260.920,356.714 261.800 C 356.274 262.680,355.237 264.214,354.409 265.209 C 353.582 266.204,352.446 267.926,351.884 269.034 C 351.322 270.143,350.565 271.297,350.202 271.598 C 349.839 271.900,349.175 272.879,348.727 273.773 C 348.280 274.668,347.237 276.214,346.409 277.209 C 345.582 278.204,344.446 279.926,343.884 281.034 C 343.322 282.143,342.565 283.297,342.202 283.598 C 341.839 283.900,341.175 284.879,340.727 285.773 C 340.280 286.668,339.237 288.214,338.409 289.209 C 337.582 290.204,336.451 291.914,335.896 293.009 C 335.341 294.104,334.488 295.360,334.001 295.800 C 333.513 296.240,332.760 297.295,332.326 298.145 C 331.094 300.561,320.766 310.667,318.420 311.754 C 317.339 312.255,315.466 313.346,314.257 314.178 C 312.082 315.676,310.303 316.209,298.539 318.881 C 295.881 319.484,290.729 318.921,285.800 317.488 C 283.820 316.912,281.174 316.241,279.920 315.996 C 278.666 315.752,276.956 315.080,276.120 314.504 C 275.284 313.928,273.340 312.939,271.800 312.306 C 270.260 311.672,268.537 310.712,267.971 310.171 C 267.405 309.629,266.025 308.605,264.903 307.893 C 258.625 303.911,250.110 294.774,247.389 289.100 C 246.624 287.505,245.626 285.622,245.172 284.916 C 241.609 279.382,242.252 257.263,246.161 250.907 C 246.942 249.638,247.789 247.970,248.045 247.200 C 248.301 246.430,249.185 244.900,250.010 243.800 C 250.834 242.700,251.871 241.080,252.315 240.200 C 252.758 239.320,253.695 237.880,254.396 237.000 C 255.098 236.120,255.909 234.835,256.197 234.144 C 256.486 233.453,257.346 232.193,258.108 231.344 C 258.871 230.495,259.860 229.080,260.307 228.200 C 260.755 227.320,261.695 225.880,262.396 225.000 C 263.098 224.120,263.909 222.835,264.197 222.144 C 264.486 221.453,265.346 220.193,266.108 219.344 C 266.871 218.495,267.860 217.080,268.307 216.200 C 268.755 215.320,269.695 213.880,270.396 213.000 C 271.098 212.120,271.909 210.835,272.197 210.144 C 272.486 209.453,273.346 208.193,274.108 207.344 C 274.871 206.495,275.860 205.080,276.307 204.200 C 276.755 203.320,277.695 201.880,278.396 201.000 C 279.098 200.120,279.909 198.835,280.197 198.144 C 280.486 197.453,281.345 196.193,282.107 195.344 C 282.868 194.495,283.807 193.170,284.193 192.400 C 284.579 191.630,285.593 190.083,286.447 188.963 C 287.301 187.843,288.000 186.744,288.000 186.521 C 288.000 185.915,289.886 184.000,290.481 184.002 C 290.766 184.003,291.720 184.198,292.600 184.436 M169.113 188.010 C 165.256 188.718,159.465 191.666,157.483 193.930 C 152.238 199.922,150.372 212.637,153.907 218.306 C 154.508 219.270,155.450 220.825,156.000 221.761 C 157.252 223.891,160.584 227.274,162.295 228.151 C 163.007 228.516,164.181 229.335,164.905 229.970 C 165.628 230.605,167.116 231.393,168.210 231.720 C 169.305 232.047,172.146 232.899,174.524 233.613 C 182.231 235.927,192.246 234.839,194.636 231.427 C 195.449 230.267,195.333 228.188,194.255 224.570 C 193.115 220.746,192.626 218.015,191.395 208.600 C 190.872 204.607,190.105 200.509,189.672 199.400 C 189.243 198.300,188.772 196.230,188.627 194.800 C 188.203 190.617,187.595 188.442,186.670 187.794 C 185.424 186.921,174.294 187.058,169.113 188.010 " stroke="none" fill="#fbfbfb" fill-rule="evenodd"></path><path id="path2" d="M0.000 200.000 L 0.000 400.000 200.000 400.000 L 400.000 400.000 400.000 200.000 L 400.000 0.000 200.000 0.000 L 0.000 0.000 0.000 200.000 M379.835 20.522 L 380.800 21.645 380.800 199.803 C 380.800 329.521,380.679 378.227,380.356 378.937 C 380.112 379.473,379.473 380.112,378.937 380.356 C 378.227 380.679,329.521 380.800,199.803 380.800 L 21.645 380.800 20.522 379.835 L 19.400 378.869 19.298 201.072 C 19.187 6.606,19.009 20.608,21.601 19.722 C 22.680 19.353,63.755 19.261,200.935 19.322 L 378.869 19.400 379.835 20.522 " stroke="none" fill="#242424" fill-rule="evenodd"></path></g></svg>